<svg xmlns="http://www.w3.org/2000/svg" viewBox="0 0 19.78 29.05"><defs><style>.a05cf434-ea83-453d-86ef-1f87e1957c49{fill:#f3f3f3;}</style></defs><g id="ae63aba0-6bf8-44a2-85a1-6c1f6b7109c2" data-name="Layer 2"><g id="addf0282-aab9-42bb-8aea-6cd0a378c99b" data-name="Capa 1"><path class="a05cf434-ea83-453d-86ef-1f87e1957c49" d="M9.89,0A9.89,9.89,0,0,0,0,9.89a10.62,10.62,0,0,0,2.05,6C4,18.8,9.05,28.07,9.12,28.17l.33.63a.51.51,0,0,0,.88,0l.33-.63c0-.1,5.13-9.34,7.07-12.23a10.55,10.55,0,0,0,2.05-6A9.92,9.92,0,0,0,9.89,0ZM14.4,10.11A4.51,4.51,0,1,1,9.67,5.42,4.53,4.53,0,0,1,14.4,10.11Z"/></g></g></svg>