<svg xmlns="http://www.w3.org/2000/svg" viewBox="0 0 46.38 58.78"><defs><style>.e49358ac-5405-48f3-a21e-960acb14db0e{fill:#73a851;}.b99b54b3-e05d-4fe8-8457-d0b24423aea0{fill:#f22c06;}.aff86006-ad4c-42e5-8e8c-7ec9a91e7dae{fill:#92010d;}.a42dba45-7324-493b-90fb-7fea9c402a18,.b145ca29-4c76-4aec-aab6-409c66861ccb,.b86ef148-9b0b-4b0c-b8ff-73404be4c7f5{fill:none;stroke:#000;stroke-width:0.2px;}.a42dba45-7324-493b-90fb-7fea9c402a18,.b145ca29-4c76-4aec-aab6-409c66861ccb{stroke-linecap:round;}.a42dba45-7324-493b-90fb-7fea9c402a18,.b86ef148-9b0b-4b0c-b8ff-73404be4c7f5{stroke-miterlimit:10;}.b145ca29-4c76-4aec-aab6-409c66861ccb{stroke-linejoin:round;}</style></defs><g id="f0570bf9-e33f-4f3e-aedc-6b87eb602600" data-name="Layer 2"><g id="bc3a4b7e-ec94-44c5-a6a3-ab348d0fef09" data-name="Capa 1"><path class="e49358ac-5405-48f3-a21e-960acb14db0e" d="M44.58,37.78c-.13-.52-.24-1.05-.32-1.58a22.23,22.23,0,0,0-3.79-9.54c.67,4-3.37,8.75-3.37,8.75.3,2.61-.82,7.85-.82,7.85a24,24,0,0,0,1.5,4s-1.72,2.32-2.4,3.52a7.79,7.79,0,0,0-.32,3.68.57.57,0,0,1-.09.4l-.55,1a.24.24,0,0,0,.12.34,16.42,16.42,0,0,1,3.35,2.42.57.57,0,0,0,.85-.12l.76-1.11a.52.52,0,0,1,.41-.22h.54a1.2,1.2,0,0,0,1-.57c.44-.71,1.35-2.1,3-4.36,2.62-3.52,1.57-8.53,1.57-8.53Z"/><path class="e49358ac-5405-48f3-a21e-960acb14db0e" d="M16.38,50.11l-1.45-1.54c.34-1.61-1.46-2.32-1.46-2.32s-1.57-.67-1.94-1.79S8.84,42.1,8.84,42.1C10,41.17,11.6,38,11.6,38c2-12.86-1.79-13.83-1.79-13.83-1.8-.6-3.29,3.06-3.29,3.06s-4.19,9-4.34,9.35A12.94,12.94,0,0,0,.39,39.07c-.48,1-.28,2.66,0,4a7.42,7.42,0,0,0,1.86,3.53c1.93,2,5.45,5.77,6.2,6.42,1,.89,3.14.52,3.14.52l1.76.88a.62.62,0,0,0,.79-.22l1-1.48,1.31-2.1a.45.45,0,0,0-.05-.55"/><path class="b99b54b3-e05d-4fe8-8457-d0b24423aea0" d="M36.28,43.25h0s0,.08,0,.13a23,23,0,0,1,9.08-2.5l-.8-3.11c-.13-.52-.24-1.05-.32-1.58,0-.08,0-.17,0-.26a21.66,21.66,0,0,1-7.09,1.47,10.94,10.94,0,0,0,0-2,17.46,17.46,0,0,0,3.19-6h0l1.76-.17a17,17,0,0,0-1.58-2.62h0c-2.84-3.07-8.3-4.56-8.3-4.56V19.18c-.33.67-1.78.92-2.5,1a.83.83,0,0,0-.63.42l-1.35,2.53a.09.09,0,0,1-.15,0l-1-2.56a.71.71,0,0,0-.51-.43c-4.14-.87-3.71-3-3.71-3L20.58,19.7a15,15,0,0,0-6.36,2.4c-3.74.74-4.41,2-4.41,2h0c-1.8-.6-3.29,3.06-3.29,3.06l0,.05A10.69,10.69,0,0,0,12,28.33a30.22,30.22,0,0,1-.22,8.51,20,20,0,0,1-8.19-3.35l-1.4,3a1.74,1.74,0,0,1-.37.47l7.65,4.43A25.78,25.78,0,0,0,11.6,38c0,1.65.9,4.41.9,5.53a1.45,1.45,0,0,0,1,1.42v1.35s1.8.71,1.46,2.32a11.75,11.75,0,0,1-4,5.08,6,6,0,0,0,.69-.07l1.76.88a.62.62,0,0,0,.79-.22l1-1.48a13.8,13.8,0,0,0,1.44,3.94.58.58,0,0,0,.61.31c2.89-.46,12.51,0,14.8.13a.91.91,0,0,0,.83-.44c1.46-2.46,2-8.13,2-8.13"/><path class="b99b54b3-e05d-4fe8-8457-d0b24423aea0" d="M11.53,44.46a4.31,4.31,0,0,0-1.66-1.72A15.4,15.4,0,0,1,6.59,44.9a21.35,21.35,0,0,1-5,.85,7.49,7.49,0,0,0,.71.89c.9,1,2.13,2.26,3.28,3.46a11.46,11.46,0,0,0,4.64-1.53,5.31,5.31,0,0,0,2-3.17,2.35,2.35,0,0,1-.65-.94"/><path class="b99b54b3-e05d-4fe8-8457-d0b24423aea0" d="M46.27,45.48c-5.21-.11-7.88.53-8.89.85.22.52.4.89.4.89l-.28.38a11.07,11.07,0,0,1,6.84,4.78l.17-.22a10.64,10.64,0,0,0,1.76-6.68"/><path class="aff86006-ad4c-42e5-8e8c-7ec9a91e7dae" d="M26,20.15a.71.71,0,0,1,.51.43l1,2.56a.08.08,0,0,0,.15,0L29,20.61a.83.83,0,0,1,.63-.42c.72-.09,2.17-.34,2.5-1,0,0,.22-2-4.64-2.69s-5.23.67-5.23.67-.43,2.12,3.71,3"/><path class="a42dba45-7324-493b-90fb-7fea9c402a18" d="M26,20.15a.71.71,0,0,1,.51.43l1,2.56a.08.08,0,0,0,.15,0L29,20.61a.83.83,0,0,1,.63-.42c.72-.09,2.17-.34,2.5-1,0,0,.22-2-4.64-2.69s-5.23.67-5.23.67S21.87,19.28,26,20.15Z"/><path class="a42dba45-7324-493b-90fb-7fea9c402a18" d="M13.47,44.9a31.15,31.15,0,0,0,3.44,2.47"/><line class="a42dba45-7324-493b-90fb-7fea9c402a18" x1="34.79" y1="48.57" x2="33.59" y2="50.36"/><line class="a42dba45-7324-493b-90fb-7fea9c402a18" x1="37.78" y1="47.22" x2="38.45" y2="48.57"/><line class="a42dba45-7324-493b-90fb-7fea9c402a18" x1="8.84" y1="42.1" x2="7.34" y2="43.26"/><path class="a42dba45-7324-493b-90fb-7fea9c402a18" d="M11.6,38c2-12.86-1.79-13.83-1.79-13.83"/><path class="a42dba45-7324-493b-90fb-7fea9c402a18" d="M40.47,26.66c.67,4-3.37,8.75-3.37,8.75.3,2.61-.82,7.85-.82,7.85"/><path class="a42dba45-7324-493b-90fb-7fea9c402a18" d="M15.12,52.76l1.31-2.1a.45.45,0,0,0-.05-.55l-1.45-1.54c.34-1.61-1.46-2.32-1.46-2.32"/><path class="a42dba45-7324-493b-90fb-7fea9c402a18" d="M20.58,19.7s1.72,3.14,7,3.59c0,0,3.74,0,4.56-1.19"/><path class="b86ef148-9b0b-4b0c-b8ff-73404be4c7f5" d="M26.37,23.13a34.4,34.4,0,0,1,0,8.46A25.41,25.41,0,0,0,26,39.82a49.92,49.92,0,0,1,.22,5.4,17,17,0,0,0,.19,2.57c.28,1.8.67,5.29,0,7.73a.31.31,0,0,0,.3.38h1.34a.53.53,0,0,0,.49-.3c.37-.67,1-2.74.19-8.41a14.42,14.42,0,0,1-.16-2,47.77,47.77,0,0,0-.43-6.51c-.45-2.32.59-7,.67-8.3s0-7.17,0-7.17"/><path class="b86ef148-9b0b-4b0c-b8ff-73404be4c7f5" d="M28.48,25.17a.68.68,0,1,1-.67-.67A.67.67,0,0,1,28.48,25.17Z"/><path class="b86ef148-9b0b-4b0c-b8ff-73404be4c7f5" d="M28.19,31.9a.67.67,0,1,1-1.34,0,.67.67,0,1,1,1.34,0Z"/><path class="b86ef148-9b0b-4b0c-b8ff-73404be4c7f5" d="M27.83,39.51a.67.67,0,1,1-.67-.67A.67.67,0,0,1,27.83,39.51Z"/><path class="b86ef148-9b0b-4b0c-b8ff-73404be4c7f5" d="M28.19,47.13a.67.67,0,1,1-.67-.68A.67.67,0,0,1,28.19,47.13Z"/><path class="b99b54b3-e05d-4fe8-8457-d0b24423aea0" d="M19.8,6.71c.47.77,2.36,3.52,5.41,4.13,0,0,1.29,3.85,7.52,2.77C40.28,12.3,35,9.87,35,9.87S36.42,1.8,28.54.26c-6.17-1.21-8.4,4.77-8.79,6a.5.5,0,0,0,.05.43"/><path class="b145ca29-4c76-4aec-aab6-409c66861ccb" d="M35,9.87a15.29,15.29,0,0,1-9.8,1s-.36-4.83,1.36-8A4.5,4.5,0,0,1,29.77.6"/><path class="a42dba45-7324-493b-90fb-7fea9c402a18" d="M20.58,7.79S22.26.33,28.58,1a8.87,8.87,0,0,1,5.1,2.36"/><path class="a42dba45-7324-493b-90fb-7fea9c402a18" d="M32.17,10.88S32.69,2.76,28.58,1A12.45,12.45,0,0,0,25.9.18"/><path class="a42dba45-7324-493b-90fb-7fea9c402a18" d="M45,51.39s.05-.1.08-.14.1-.18.14-.27.05-.09.07-.14l.15-.33,0-.07c.06-.14.11-.27.16-.41a.36.36,0,0,1,0-.11l.09-.3s0-.1,0-.14,0-.19.08-.28l0-.14c0-.1,0-.21.07-.31l0-.1c0-.13,0-.27.07-.4v-.07c0-.11,0-.23,0-.34s0-.07,0-.11l0-.29v-.11l0-.32V47q0-.39,0-.75v-.4c0-.11,0-.22,0-.32h0a12.55,12.55,0,0,0-.19-1.85l-.7-2.74-.8-3.11c-.13-.52-.24-1.05-.32-1.58,0-.08,0-.17,0-.26a24.27,24.27,0,0,0-2.16-6.66h0a17,17,0,0,0-1.58-2.62c-2.84-3.07-8.3-4.56-8.3-4.56V19.18s.22-2-4.64-2.69-5.23.67-5.23.67L20.58,19.7a15,15,0,0,0-6.36,2.4c-3.74.74-4.41,2-4.41,2-1.8-.6-3.29,3.06-3.29,3.06h0v0c-.16.36-1.72,3.7-2.92,6.28h0c-.09.18-.17.36-.25.54l0,.08-.21.45L3,34.71l0,.06-.08.17-.07.14,0,.08-.07.15,0,0-.08.18,0,.06-.06.12,0,.05-.06.11,0,.1,0,.06,0,.06-.05.12h0l0,.09v0l0,.08h0l0,0h0l0,0a.41.41,0,0,1-.05.09v0l-.07.08H2L2,36.85l-.05,0L1.81,37A8.13,8.13,0,0,0,.39,39.07c-.48,1-.28,2.66,0,4a7.24,7.24,0,0,0,1.48,3.08v0c.12.15.24.29.37.43l.3.32.07.07.34.36,0,0,.37.39,0,0,.38.4,0,0,.39.42,0,0C6,50.6,7.93,52.6,8.46,53.06a3.75,3.75,0,0,0,2.45.59h0a6.69,6.69,0,0,0,.68-.07h0l1.76.88a.62.62,0,0,0,.79-.22l1-1.48a13.8,13.8,0,0,0,1.44,3.94.58.58,0,0,0,.61.31c2.89-.46,12.51,0,14.8.13a.91.91,0,0,0,.83-.44c1.46-2.46,2-8.13,2-8.13l1.49-5.32h0a18.4,18.4,0,0,0,1.25,3.42h0c0,.11.09.2.12.28h0l.09.19h0l0,.05h0v0l0,0,0,.06h0l-.06.09-.08.11c-.48.66-1.65,2.28-2.18,3.22A6.53,6.53,0,0,0,35,53.85v.45s0,.08,0,.12a.57.57,0,0,1-.09.4l-.55,1a.24.24,0,0,0,.12.34,16.42,16.42,0,0,1,3.35,2.42.57.57,0,0,0,.85-.12l.76-1.11a.52.52,0,0,1,.41-.22h.82l.12,0h0a1.21,1.21,0,0,0,.62-.5c.44-.71,1.35-2.1,3-4.36.09-.13.18-.25.26-.38l.08-.12ZM13.47,44.9v1.35a5.2,5.2,0,0,1-1.29-.85l-.08-.08L12,45.26,12,45.19a.69.69,0,0,1-.11-.13l0-.05-.08-.13,0,0-.1-.17,0,0-.07-.18s0-.08,0-.11l0,0,0-.08a.08.08,0,0,1,0,0,.16.16,0,0,1,0-.07l0,0a.16.16,0,0,0,0-.07l0,0,0-.06,0,0-.06-.06,0,0L11,43.68l0,0-.07-.07,0,0a.27.27,0,0,0-.08-.07l0,0-.1-.09h0l-.51-.4h0L10,42.83h0l-.13-.09h0c-.55-.38-1-.64-1-.64a4.61,4.61,0,0,0,.62-.67h0a25.72,25.72,0,0,0,2.08-3.36V38h0v0c0,1.65.9,4.41.9,5.53A1.45,1.45,0,0,0,13.47,44.9ZM12.19,31.34v0Zm0-.5v0Zm0-.93h0Zm0-.41v0Zm0,3.4v0Zm0,.57v0ZM12,34.75v0Zm-.06.62v0Zm-.08.72v0Zm25.28.46v0Zm0-1.18,0,0Zm3.15-5.92h0A16.81,16.81,0,0,1,37.41,35,16.92,16.92,0,0,0,40.29,29.45Zm-3.11,5.87a1.49,1.49,0,0,1,.15-.19Zm.15-.2L37.4,35Zm-.21.27h0Zm0,.88v0Zm0-.27s0-.07,0-.1S37.15,36,37.15,36Zm0-.27v0Zm0,1.29v0Zm0-.3v0Z"/><path class="a42dba45-7324-493b-90fb-7fea9c402a18" d="M19.8,6.71c.47.77,2.36,3.52,5.41,4.13,0,0,1.29,3.85,7.52,2.77C40.28,12.3,35,9.87,35,9.87S36.42,1.8,28.54.26c-6.17-1.21-8.4,4.77-8.79,6A.5.5,0,0,0,19.8,6.71Z"/></g></g></svg>